<?xml version="1.0" encoding="UTF-8"?>
<svg xmlns="http://www.w3.org/2000/svg" viewBox="0 0 1400 2200" font-family="Segoe UI, Microsoft YaHei, sans-serif">
  <defs>
    <marker id="arrow" markerWidth="8" markerHeight="8" refX="7" refY="4" orient="auto">
      <path d="M0,0 L8,4 L0,8 Z" fill="#444"/>
    </marker>
    <style>
      .title { font-size: 28px; font-weight: 700; fill: #111; }
      .subtitle { font-size: 14px; fill: #666; }
      .lane-title { font-size: 16px; font-weight: 700; fill: #fff; }
      .box { fill: #fff; stroke: #ccc; stroke-width: 1.5; rx: 8; }
      .box-daily { stroke: #7b4397; fill: #f8f4fb; }
      .box-a { stroke: #e67e22; fill: #fff8f0; }
      .box-b { stroke: #2563eb; fill: #f0f5ff; }
      .box-data { stroke: #555; fill: #fafafa; }
      .box-warn { stroke: #c0392b; fill: #fff5f5; }
      .label { font-size: 13px; fill: #222; }
      .small { font-size: 11px; fill: #555; }
      .lane-daily { fill: #7b4397; }
      .lane-a { fill: #e67e22; }
      .lane-b { fill: #2563eb; }
      .lane-shared { fill: #444; }
      .line { stroke: #444; stroke-width: 1.5; fill: none; marker-end: url(#arrow); }
      .dash { stroke-dasharray: 6 4; stroke: #888; }
    </style>
  </defs>

  <text x="700" y="40" text-anchor="middle" class="title">TikTok Monitor ЗЖpnA</text>
  <text x="700" y="68" text-anchor="middle" class="subtitle">Daily һП · A ҝниe“ · B ҝниф° · лg¬цһ</text>

  <!-- Lane 1 Daily -->
  <rect x="30" y="95" width="1340" height="34" rx="6" class="lane-daily"/>
  <text x="50" y="118" class="lane-title">Daily һПҝZ;һП + daily лg	</text>

  <rect x="50" y="150" width="160" height="52" class="box box-daily"/>
  <text x="130" y="172" text-anchor="middle" class="label">Д/h@</text>
  <text x="130" y="190" text-anchor="middle" class="small">Daily щҹ APScheduler</text>

  <rect x="240" y="150" width="160" height="52" class="box box-daily"/>
  <text x="320" y="172" text-anchor="middle" class="label">scrape_creator</text>
  <text x="320" y="190" text-anchor="middle" class="small">mode = daily</text>

  <rect x="430" y="150" width="180" height="52" class="box box-daily"/>
  <text x="520" y="172" text-anchor="middle" class="label">ф°т	Ж‘</text>
  <text x="520" y="190" text-anchor="middle" class="small">10)… · ПN)Ve</text>

  <rect x="640" y="150" width="180" height="52" class="box box-daily"/>
  <text x="730" y="172" text-anchor="middle" class="label">°Ж‘e“</text>
  <text x="730" y="190" text-anchor="middle" class="small">	 recent_video —г</text>

  <rect x="850" y="150" width="160" height="52" class="box box-data"/>
  <text x="930" y="172" text-anchor="middle" class="label">VideoSnapshot</text>
  <text x="930" y="190" text-anchor="middle" class="small">source = daily</text>

  <rect x="1040" y="150" width="160" height="52" class="box box-daily"/>
  <text x="1120" y="172" text-anchor="middle" class="label">last_scraped_at</text>
  <text x="1120" y="190" text-anchor="middle" class="small">Z;цф3</text>

  <rect x="1230" y="140" width="120" height="72" class="box box-daily"/>
  <text x="1290" y="168" text-anchor="middle" class="label">{</text>
  <text x="1290" y="186" text-anchor="middle" class="small">Ҷт></text>
  <text x="1290" y="202" text-anchor="middle" class="small">+ Sени vL</text>

  <line x1="210" y1="176" x2="240" y2="176" class="line"/>
  <line x1="400" y1="176" x2="430" y2="176" class="line"/>
  <line x1="610" y1="176" x2="640" y2="176" class="line"/>
  <line x1="820" y1="176" x2="850" y2="176" class="line"/>
  <line x1="1010" y1="176" x2="1040" y2="176" class="line"/>
  <line x1="1200" y1="176" x2="1230" y2="176" class="line"/>

  <!-- Lane 2 A -->
  <rect x="30" y="260" width="1340" height="34" rx="6" class="lane-a"/>
  <text x="50" y="283" class="lane-title">A ҝ ниe“	Дщҹ · кe“°G	</text>

  <rect x="50" y="315" width="180" height="52" class="box box-a"/>
  <text x="140" y="337" text-anchor="middle" class="label">hot_ingest щҹ</text>
  <text x="140" y="355" text-anchor="middle" class="small">CollectionSchedule task_type</text>

  <rect x="260" y="315" width="160" height="52" class="box box-a"/>
  <text x="340" y="337" text-anchor="middle" class="label">mode=hot_ingest</text>
  <text x="340" y="355" text-anchor="middle" class="small">;ГZ; is_active</text>

  <rect x="450" y="315" width="200" height="52" class="box box-a"/>
  <text x="550" y="337" text-anchor="middle" class="label">Е°Ж‘</text>
  <text x="550" y="355" text-anchor="middle" class="small">ни—г scrape_window_hours</text>

  <rect x="680" y="315" width="160" height="52" class="box box-data"/>
  <text x="760" y="337" text-anchor="middle" class="label">VideoSnapshot</text>
  <text x="760" y="355" text-anchor="middle" class="small">source=hot_ingest</text>

  <rect x="870" y="315" width="160" height="52" class="box box-a"/>
  <text x="950" y="337" text-anchor="middle" class="label">last_hot_ingest_at</text>
  <text x="950" y="355" text-anchor="middle" class="small">+ {°</text>

  <rect x="1060" y="305" width="200" height="72" class="box box-a"/>
  <text x="1160" y="330" text-anchor="middle" class="label">кЁю B ҝ</text>
  <text x="1160" y="348" text-anchor="middle" class="small">run_hot_update_for_group</text>
  <text x="1160" y="366" text-anchor="middle" class="small">trigger=ingest_chain:*</text>

  <rect x="1290" y="315" width="80" height="52" class="box box-warn"/>
  <text x="1330" y="337" text-anchor="middle" class="label">B РL?</text>
  <text x="1330" y="355" text-anchor="middle" class="small">skip</text>

  <line x1="230" y1="341" x2="260" y2="341" class="line"/>
  <line x1="420" y1="341" x2="450" y2="341" class="line"/>
  <line x1="650" y1="341" x2="680" y2="341" class="line"/>
  <line x1="840" y1="341" x2="870" y2="341" class="line"/>
  <line x1="1030" y1="341" x2="1060" y2="341" class="line"/>
  <line x1="1260" y1="341" x2="1290" y2="341" class="line"/>

  <!-- Lane 3 B -->
  <rect x="30" y="420" width="1340" height="34" rx="6" class="lane-b"/>
  <text x="50" y="443" class="lane-title">B ҝ ниф°цөh · кф°т	G	</text>

  <rect x="50" y="475" width="200" height="52" class="box box-b"/>
  <text x="150" y="497" text-anchor="middle" class="label">Oh П 1 ҹ</text>
  <text x="150" y="515" text-anchor="middle" class="small">hot_update_coordinator</text>

  <rect x="280" y="475" width="220" height="52" class="box box-b"/>
  <text x="390" y="497" text-anchor="middle" class="label">HotUpdateSegment</text>
  <text x="390" y="515" text-anchor="middle" class="small">¬цф start-end-interval ҶЦ24h</text>

  <rect x="530" y="475" width="160" height="52" class="box box-b"/>
  <text x="610" y="497" text-anchor="middle" class="label">0$ҡ</text>
  <text x="610" y="515" text-anchor="middle" class="small">last_hot_update_at + interval</text>

  <rect x="720" y="465" width="120" height="72" class="box box-warn"/>
  <text x="780" y="492" text-anchor="middle" class="label">Д Lock</text>
  <text x="780" y="510" text-anchor="middle" class="small">тРL?</text>
  <text x="780" y="526" text-anchor="middle" class="small">skip if running</text>

  <rect x="870" y="475" width="160" height="52" class="box box-b"/>
  <text x="950" y="497" text-anchor="middle" class="label">mode=hot_update</text>
  <text x="950" y="515" text-anchor="middle" class="small">ф°т	 + у°G</text>

  <rect x="1060" y="475" width="160" height="52" class="box box-data"/>
  <text x="1140" y="497" text-anchor="middle" class="label">VideoSnapshot</text>
  <text x="1140" y="515" text-anchor="middle" class="small">source=hot_update</text>

  <rect x="1250" y="465" width="120" height="72" class="box box-b"/>
  <text x="1310" y="492" text-anchor="middle" class="label">Н$ни</text>
  <text x="1310" y="510" text-anchor="middle" class="small">reclassify</text>
  <text x="1310" y="526" text-anchor="middle" class="small">ҫ</text>

  <line x1="250" y1="501" x2="280" y2="501" class="line"/>
  <line x1="500" y1="501" x2="530" y2="501" class="line"/>
  <line x1="690" y1="501" x2="720" y2="501" class="line"/>
  <line x1="840" y1="501" x2="870" y2="501" class="line"/>
  <line x1="1030" y1="501" x2="1060" y2="501" class="line"/>
  <line x1="1220" y1="501" x2="1250" y2="501" class="line"/>

  <!-- Collision diagram -->
  <rect x="30" y="580" width="1340" height="34" rx="6" class="lane-shared"/>
  <text x="50" y="603" class="lane-title">һfДД asyncio.Lock	</text>

  <rect x="80" y="640" width="280" height="100" class="box box-warn"/>
  <text x="220" y="668" text-anchor="middle" class="label">A Ң ’ ю B</text>
  <text x="220" y="688" text-anchor="middle" class="small">е B т(Сskipped reason=running</text>
  <text x="220" y="708" text-anchor="middle" class="small">5 ҹ…h B  A ю B </text>
  <text x="220" y="728" text-anchor="middle" class="small">vLМ B</text>

  <rect x="420" y="640" width="280" height="100" class="box box-b"/>
  <text x="560" y="668" text-anchor="middle" class="label">h BOhжС	</text>
  <text x="560" y="688" text-anchor="middle" class="small">ПҹkПД</text>
  <text x="560" y="708" text-anchor="middle" class="small">SMцө interval *0 ’ уЗ</text>
  <text x="560" y="728" text-anchor="middle" class="small">Lock `( ’ уЗ</text>

  <rect x="760" y="640" width="280" height="100" class="box box-a"/>
  <text x="900" y="668" text-anchor="middle" class="label">KЁ A / B</text>
  <text x="900" y="688" text-anchor="middle" class="small">С§Ў ’ Дҫn</text>
  <text x="900" y="708" text-anchor="middle" class="small">POST hot-ingest/trigger</text>
  <text x="900" y="728" text-anchor="middle" class="small">POST hot-update/trigger</text>

  <rect x="1100" y="640" width="240" height="100" class="box box-daily"/>
  <text x="1220" y="668" text-anchor="middle" class="label">Daily мЛ</text>
  <text x="1220" y="688" text-anchor="middle" class="small">п A/B НаgL</text>
  <text x="1220" y="708" text-anchor="middle" class="small">РШЗ0	HpnӮҮ</text>
  <text x="1220" y="728" text-anchor="middle" class="small">ҷ daily лg</text>

  <!-- Snapshot & velocity -->
  <rect x="30" y="780" width="1340" height="34" rx="6" class="lane-shared"/>
  <text x="50" y="803" class="lane-title">лg source ¬цһ</text>

  <rect x="80" y="840" width="300" height="120" class="box box-data"/>
  <text x="230" y="868" text-anchor="middle" class="label">VideoSnapshot.source</text>
  <text x="230" y="890" text-anchor="middle" class="small">daily · hot_ingest · hot_update</text>
  <text x="230" y="910" text-anchor="middle" class="small">ПaЗЖҷe aлg</text>
  <text x="230" y="930" text-anchor="middle" class="small">°U view/like/share/comment</text>
  <text x="230" y="950" text-anchor="middle" class="small">+ snapshot_at цф3</text>

  <rect x="420" y="840" width="360" height="120" class="box box-b"/>
  <text x="600" y="868" text-anchor="middle" class="label">calc_instant_view_velocity</text>
  <text x="600" y="890" text-anchor="middle" class="small">H baseline eк hot_update / hot_ingest</text>
  <text x="600" y="910" text-anchor="middle" class="small">лgp &gt; 1 MЎ—&ФЮ 0</text>
  <text x="600" y="930" text-anchor="middle" class="small">”ӯ> / growth_window_minutes</text>
  <text x="600" y="950" text-anchor="middle" class="small">Dashboard >: velocity_ready</text>

  <rect x="820" y="840" width="260" height="120" class="box box-daily"/>
  <text x="950" y="868" text-anchor="middle" class="label">sGһ</text>
  <text x="950" y="890" text-anchor="middle" class="small">ӯ>П ч СуКҹ</text>
  <text x="950" y="910" text-anchor="middle" class="small">$ҡSени<</text>
  <text x="950" y="930" text-anchor="middle" class="small">Ҷт>vLпцбі</text>
  <text x="950" y="950" text-anchor="middle" class="small">category: daily_hot · historical · М~</text>

  <rect x="1120" y="840" width="220" height="120" class="box box-data"/>
  <text x="1230" y="868" text-anchor="middle" class="label">DailyHotRecord</text>
  <text x="1230" y="890" text-anchor="middle" class="small">Sениh</text>
  <text x="1230" y="910" text-anchor="middle" class="small">B ҝ reclassify фӨ</text>
  <text x="1230" y="930" text-anchor="middle" class="small">ҫкЁЦҲ°</text>
  <text x="1230" y="950" text-anchor="middle" class="small">hot_date = S)</text>

  <!-- Classification flow -->
  <rect x="30" y="1000" width="1340" height="34" rx="6" class="lane-daily"/>
  <text x="50" y="1023" class="lane-title">apply_video_classificationПaЖ‘ЗЖ	</text>

  <rect x="60" y="1060" width="200" height="60" class="box"/>
  <text x="160" y="1088" text-anchor="middle" class="label">ыЦӯ>П</text>
  <text x="160" y="1106" text-anchor="middle" class="small">+ published_at</text>

  <rect x="290" y="1060" width="240" height="60" class="box box-daily"/>
  <text x="410" y="1084" text-anchor="middle" class="label">Ҷт>$ҡ</text>
  <text x="410" y="1102" text-anchor="middle" class="small">view e historical_view_threshold</text>

  <rect x="560" y="1060" width="260" height="60" class="box box-a"/>
  <text x="690" y="1084" text-anchor="middle" class="label">Sени$ҡ</text>
  <text x="690" y="1102" text-anchor="middle" class="small">avg_velocity e < + ни—г</text>

  <rect x="850" y="1060" width="200" height="60" class="box"/>
  <text x="950" y="1084" text-anchor="middle" class="label">resolve_video_category</text>
  <text x="950" y="1102" text-anchor="middle" class="small">Мбі ’ daily_hot HU:</text>

  <rect x="1080" y="1060" width="260" height="60" class="box box-data"/>
  <text x="1210" y="1084" text-anchor="middle" class="label">ҷe Video Wө</text>
  <text x="1210" y="1102" text-anchor="middle" class="small">is_historical_viral / is_daily_hot</text>

  <line x1="260" y1="1090" x2="290" y2="1090" class="line"/>
  <line x1="530" y1="1090" x2="560" y2="1090" class="line"/>
  <line x1="820" y1="1090" x2="850" y2="1090" class="line"/>
  <line x1="1050" y1="1090" x2="1080" y2="1090" class="line"/>

  <!-- Config table -->
  <rect x="30" y="1160" width="1340" height="34" rx="6" fill="#eee" stroke="#ccc"/>
  <text x="50" y="1183" class="label" font-weight="700">Mneгщg</text>

  <text x="60" y="1220" class="label" font-weight="700">Mny</text>
  <text x="360" y="1220" class="label" font-weight="700">Mn</text>
  <text x="720" y="1220" class="label" font-weight="700">\(</text>
  <line x1="50" y1="1230" x2="1350" y2="1230" stroke="#ccc"/>

  <text x="60" y="1258" class="small">Daily щҹ</text>
  <text x="360" y="1258" class="small">С§Ў ’ Д Daily һПщҹ / ыЯҫnh@щҹ</text>
  <text x="720" y="1258" class="small">task_type=daily · һПЗЖ + daily лg</text>

  <text x="60" y="1288" class="small">A ҝщҹ</text>
  <text x="360" y="1288" class="small">С§Ў ’ Д ниe“ A ҝщҹ</text>
  <text x="720" y="1288" class="small">task_type=hot_ingest · °Ge“ + ю B</text>

  <text x="60" y="1318" class="small">B ҝцө</text>
  <text x="360" y="1318" class="small">С§Ў ’ Д B ҝцөh¬цф 24h ҶЦ	</text>
  <text x="720" y="1318" class="small">HotUpdateSegment · Oh	 interval жС B</text>

  <text x="60" y="1348" class="small">Д<</text>
  <text x="360" y="1348" class="small">С§Ў ’ ‘<</text>
  <text x="720" y="1348" class="small">historical_view · daily_hot_avg_growth · scrape_window_hours</text>

  <text x="60" y="1378" class="small">h@Ve</text>
  <text x="360" y="1378" class="small">ыЯҫn</text>
  <text x="720" y="1378" class="small">recent_video_days · recent_video_update_days · B ҝШӨф”</text>

  <!-- Entity diagram -->
  <rect x="30" y="1420" width="1340" height="34" rx="6" fill="#f5f5f5" stroke="#ccc"/>
  <text x="50" y="1443" class="label" font-weight="700">8ГһSцф3</text>

  <rect x="60" y="1470" width="250" height="140" class="box"/>
  <text x="185" y="1498" text-anchor="middle" class="label">MonitorGroup</text>
  <text x="185" y="1520" text-anchor="middle" class="small">growth_window_minutes (BШӨф”)</text>
  <text x="185" y="1540" text-anchor="middle" class="small">scrape_window_hours (ни—г)</text>
  <text x="185" y="1560" text-anchor="middle" class="small">last_hot_update_at</text>
  <text x="185" y="1580" text-anchor="middle" class="small">hot_update_segments[]</text>

  <rect x="340" y="1470" width="250" height="140" class="box"/>
  <text x="465" y="1498" text-anchor="middle" class="label">MonitoredCreator</text>
  <text x="465" y="1520" text-anchor="middle" class="small">last_scraped_at (Daily)</text>
  <text x="465" y="1540" text-anchor="middle" class="small">last_hot_ingest_at (A)</text>
  <text x="465" y="1560" text-anchor="middle" class="small">last_hot_update_at (B)</text>
  <text x="465" y="1580" text-anchor="middle" class="small">is_active = ;ГZ;</text>

  <rect x="620" y="1470" width="250" height="140" class="box"/>
  <text x="745" y="1498" text-anchor="middle" class="label">Video + VideoSnapshot</text>
  <text x="745" y="1520" text-anchor="middle" class="small">view_count Iӯ></text>
  <text x="745" y="1540" text-anchor="middle" class="small">instant / avg velocity</text>
  <text x="745" y="1560" text-anchor="middle" class="small">is_daily_hot / is_historical_viral</text>
  <text x="745" y="1580" text-anchor="middle" class="small">category U:~</text>

  <rect x="900" y="1470" width="250" height="140" class="box"/>
  <text x="1025" y="1498" text-anchor="middle" class="label">CollectionSchedule</text>
  <text x="1025" y="1520" text-anchor="middle" class="small">task_type: daily | hot_ingest</text>
  <text x="1025" y="1540" text-anchor="middle" class="small">schedule_type: daily | once</text>
  <text x="1025" y="1560" text-anchor="middle" class="small">run_time / run_at</text>
  <text x="1025" y="1580" text-anchor="middle" class="small">group_id 	Д</text>

  <rect x="1180" y="1470" width="170" height="140" class="box"/>
  <text x="1265" y="1498" text-anchor="middle" class="label">HotUpdateSegment</text>
  <text x="1265" y="1520" text-anchor="middle" class="small">start_time</text>
  <text x="1265" y="1540" text-anchor="middle" class="small">end_time</text>
  <text x="1265" y="1560" text-anchor="middle" class="small">interval_minutes</text>
  <text x="1265" y="1580" text-anchor="middle" class="small">Asia/Shanghai</text>

  <text x="700" y="1660" text-anchor="middle" class="subtitle">ЭX№OИhS d SVG ’ у.жX: PNG*ю</text>
  <text x="700" y="1685" text-anchor="middle" class="subtitle">yоп„docs/collection-data-flow.svg</text>

  <!-- Sequence: full day -->
  <rect x="30" y="1720" width="1340" height="34" rx="6" class="lane-b"/>
  <text x="50" y="1743" class="lane-title">xӢ )цҸ:	</text>

  <text x="60" y="1780" class="small">08:00 Daily щҹжС ’ hДһП + daily лg</text>
  <text x="60" y="1805" class="small">09:00 A ҝщҹ ’ °ниGe“ ’ ю Bе B zт	</text>
  <text x="60" y="1830" class="small">08:0022:00 B цө interval=30min ’ OhП0С ! hot_update</text>
  <text x="60" y="1855" class="small">22:0008:00 B цө interval=60min ’ фM‘</text>
  <text x="60" y="1880" class="small">A h B һf ’ Д Lock skipreason=running	</text>
  <text x="60" y="1905" class="small">Dashboard ¬цһ ’ H B ҝлgі>:…7°</text>
</svg>
